<?xml version="1.0" encoding="UTF-8"?>
<!-- Generator: Adobe Illustrator 16.0.3, SVG Export Plug-In . SVG Version: 6.00 Build 0)  -->
<!DOCTYPE svg PUBLIC "-//W3C//DTD SVG 1.1//EN" "http://www.w3.org/Graphics/SVG/1.1/DTD/svg11.dtd">
<svg version="1.1" id="svg1645" xmlns:dc="http://purl.org/dc/elements/1.1/" xmlns:cc="http://creativecommons.org/ns#" xmlns:rdf="http://www.w3.org/1999/02/22-rdf-syntax-ns#" xmlns:svg="http://www.w3.org/2000/svg" xmlns:sodipodi="http://sodipodi.sourceforge.net/DTD/sodipodi-0.dtd" xmlns:inkscape="http://www.inkscape.org/namespaces/inkscape" sodipodi:docname="test.svg" inkscape:version="0.92.2 (5c3e80d, 2017-08-06)" xmlns="http://www.w3.org/2000/svg" xmlns:xlink="http://www.w3.org/1999/xlink" x="0px" y="0px" width="109.133px" height="104.381px" viewBox="0 0 109.133 104.381" enable-background="new 0 0 109.133 104.381" xml:space="preserve">
<sodipodi:namedview fit-margin-left="0" fit-margin-top="0" showgrid="false" inkscape:cy="-107.55555" inkscape:cx="158.46945" inkscape:zoom="0.35" borderopacity="1.0" bordercolor="#666666" pagecolor="#ffffff" id="base" fit-margin-bottom="0" fit-margin-right="0" inkscape:window-maximized="1" inkscape:window-y="-8" inkscape:current-layer="layer1" inkscape:window-x="-8" inkscape:pageshadow="2" inkscape:document-units="mm" inkscape:pageopacity="0.0" inkscape:window-height="705" inkscape:window-width="1366">
	</sodipodi:namedview>
<g id="layer1" transform="translate(-63.904959,-83.552654)" inkscape:label="Layer 1" inkscape:groupmode="layer">
	<g id="g1699" transform="translate(417.28571,109.6131)">
		<g id="g94" transform="matrix(0.34482715,0,0,-0.33336312,-332.78977,9.7271189)">
			<path id="path96" inkscape:connector-curvature="0" fill="#D674A7" d="M109.554-196.953h-0.006     c-22.169,0-44.334,5.478-64.097,15.837C19.677-167.6-0.796-146.789-13.818-120.873c-7.178-2.37-15.25-1.731-21.984,1.796     c-6.955,3.65-11.961,9.825-14.094,17.383c-2.131,7.561-1.079,15.45,2.957,22.217c5.055,8.46,14.404,13.716,24.401,13.716     c4.309,0,8.615-1.008,12.447-2.909C0.562-73.958,6.685-85.178,5.463-96.907c3.516-0.433,7.081-0.647,10.619-0.647     c32.852,0,62.72,18.045,77.953,47.096c16.95,32.329,12.033,72.043-12.164,99.269c-5.133-4.396-11.623-6.802-18.425-6.802     c-4.527,0-9.051,1.116-13.088,3.234c-6.953,3.644-11.958,9.817-14.091,17.376c-2.134,7.555-1.085,15.441,2.948,22.207     c5.049,8.47,14.401,13.735,24.406,13.735c4.326,0,8.476-0.961,12.333-2.855c7.138-3.506,12.424-9.802,14.661-17.405     c6.347,0.888,12.795,1.339,19.184,1.339c22.03,0,43.197-5.125,62.911-15.229c67.567-34.633,94.618-117.874,60.297-185.559     C209.301-167.905,161.992-196.953,109.554-196.953"/>
		</g>
		<g id="g98" transform="matrix(0.34482715,0,0,-0.33336312,-322.60337,-7.4189771)">
			<path id="path100" inkscape:connector-curvature="0" fill="#FFFFFF" d="M163.751-102.592c-1.09-2.812-2.77-3.846-4.625-3.855     c-1.869-0.006-3.515,1.04-4.625,3.876c-0.858,2.196-1.407,5.765-1.419,8.838c-0.006,3.149,0.447,6.656,1.331,8.88     c1.093,2.74,2.798,3.864,4.628,3.868c1.844,0.006,3.602-1.359,4.71-4.135c0.884-2.212,1.32-5.459,1.328-8.577     C165.091-96.793,164.609-100.385,163.751-102.592"/>
		</g>
		<g id="g102" transform="matrix(0.34482715,0,0,-0.33336312,-328.20357,-7.4211791)">
			<path id="path104" inkscape:connector-curvature="0" fill="#FFFFFF" d="M133.954-102.578c-1.107-2.836-2.756-3.884-4.625-3.873     c-1.849,0.006-3.529,1.037-4.622,3.849c-0.858,2.213-1.342,5.805-1.331,8.897c0.014,3.118,0.447,6.367,1.331,8.58     c1.11,2.773,2.866,4.139,4.707,4.136c1.83-0.009,3.537-1.128,4.63-3.87c0.886-2.228,1.34-5.734,1.328-8.883     C135.362-96.811,134.818-100.381,133.954-102.578"/>
		</g>
		<g id="g106" transform="matrix(0.34482715,0,0,-0.33336312,-328.27623,-7.5570581)">
			<path id="path108" inkscape:connector-curvature="0" d="M133.567-101.833c-0.963-2.462-2.396-3.373-4.019-3.367     c-1.611,0.006-3.073,0.908-4.024,3.351c-0.742,1.922-1.161,5.046-1.155,7.735c0.011,2.71,0.391,5.537,1.155,7.458     c0.966,2.412,2.492,3.603,4.098,3.597c1.589-0.006,3.073-0.981,4.024-3.365c0.77-1.936,1.161-4.984,1.156-7.725     C134.791-96.818,134.315-99.921,133.567-101.833 M129.331-78.534c-8.918-0.817-10.943-14.729-10.943-33.639     c0-18.895,1.218-34.843,10.657-34.954c9.003-0.094,10.527,15.327,10.527,34.233C139.571-93.978,139.583-77.59,129.331-78.534      M179.591-101.849c-0.946-2.443-2.404-3.345-4.019-3.351c-1.62-0.006-3.056,0.905-4.021,3.367     c-0.748,1.911-1.223,5.015-1.232,7.685c-0.011,2.74,0.388,5.788,1.153,7.725c0.954,2.383,2.436,3.359,4.027,3.365     c1.603,0.006,3.132-1.185,4.092-3.597c0.773-1.922,1.153-4.749,1.158-7.458C180.76-96.803,180.341-99.927,179.591-101.849      M175.79-78.534c-10.255,0.943-10.243-15.444-10.243-34.359c0-18.906,1.524-34.327,10.532-34.233     c9.436,0.111,10.651,16.059,10.651,34.954C186.73-93.263,184.705-79.351,175.79-78.534 M217.209-171.622     c-34.171-67.389-116.731-93.622-183.434-58.647c-26.38,13.833-46.287,35.153-58.496,59.983c-0.375,0.762-1.259,1.142-2.053,0.844     c-6.522-2.487-14.034-2.285-20.704,1.213c-12.774,6.697-17.431,22.791-9.939,35.344c6.688,11.199,21.201,15.444,32.883,9.644     c10.147-5.036,15.344-15.91,13.72-26.459c-0.139-0.911,0.504-1.769,1.417-1.895c36.93-5.097,74.723,12.957,93.035,47.876     C101.948-68.798,95.304-27.443,70.106,0.034c-0.62,0.68-1.692,0.721-2.361,0.088c-7.622-7.211-19.254-9.178-29.064-4.034     c-12.768,6.695-17.428,22.779-9.945,35.332c6.662,11.17,21.113,15.44,32.789,9.708c7.006-3.442,11.667-9.667,13.381-16.648     c0.204-0.825,1.021-1.336,1.861-1.21c26.972,4.016,55.395-0.051,81.466-13.414C224.17-23.939,250.717-105.537,217.209-171.622      M236.937-66.703c-11.702,37.492-37.298,68.182-72.081,86.421c-23.441,12.29-51.611,17.701-80.982,14.609     c-3.322,7.025-8.861,13.068-16.256,16.945c-18.097,9.488-40.539,2.487-50.029-15.609c-9.487-18.097-2.487-40.539,15.61-50.029     c11.45-6.001,24.633-5.397,35.181,0.434c16.583-24.103,19.105-57.033,4.805-84.306c-14.3-27.272-42.823-43.925-72.077-43.99     c-1.201,11.99-8.203,23.178-19.652,29.183c-18.097,9.485-40.539,2.484-50.026-15.611c-9.487-18.095-2.487-40.54,15.61-50.029     c7.396-3.879,15.517-4.998,23.182-3.735c14.162-25.92,34.634-46.015,58.071-58.301c34.784-18.239,74.587-21.842,112.078-10.142     c37.49,11.697,68.184,37.297,86.422,72.081c18.238,34.784,21.841,74.583,10.144,112.08"/>
		</g>
	</g>
</g>
</svg>